<svg xmlns="http://www.w3.org/2000/svg" width="300" height="180" viewBox="0 0 300 180">
<defs>
<linearGradient id="bg" x1="0" y1="0" x2="1" y2="1"><stop stop-color="#e8f3ff"/><stop offset="1" stop-color="#c9def5"/></linearGradient>
<filter id="s" x="-20%" y="-20%" width="140%" height="140%"><feDropShadow dx="0" dy="2" stdDeviation="2" flood-color="#000" flood-opacity=".18"/></filter>
</defs>
<rect width="100%" height="100%" fill="url(#bg)" rx="12"/>
<rect y="111" width="300" height="68" fill="#ffffff" opacity="0.35"/>
<rect x="30.0" y="45.0" width="90.0" height="81.0" rx="4" fill="#3d8ec9" filter="url(#s)"/><rect x="135.0" y="32.4" width="105.0" height="93.6" rx="4" fill="#2f7fbf" filter="url(#s)"/><g fill="#fff" opacity=".8"><rect x="42.0" y="54.0" width="8" height="8"/><rect x="42.0" y="69.0" width="8" height="8"/><rect x="42.0" y="84.0" width="8" height="8"/><rect x="60.0" y="54.0" width="8" height="8"/><rect x="60.0" y="69.0" width="8" height="8"/><rect x="60.0" y="84.0" width="8" height="8"/><rect x="78.0" y="54.0" width="8" height="8"/><rect x="78.0" y="69.0" width="8" height="8"/><rect x="78.0" y="84.0" width="8" height="8"/></g>
</svg>