<svg width="1200" height="760" viewBox="0 0 1200 760" fill="none" xmlns="http://www.w3.org/2000/svg">
  <rect width="1200" height="760" fill="url(#sky)"/>
  <circle cx="622" cy="216" r="120" fill="url(#sun)" opacity="0.92"/>
  <path d="M0 392C143 368 259 387 373 404C494 422 620 438 769 414C914 391 1034 352 1200 374V760H0V392Z" fill="url(#water)"/>
  <path d="M0 458C122 427 249 428 366 441C487 454 608 491 735 485C875 478 1009 426 1200 448V760H0V458Z" fill="url(#reflection)" opacity="0.55"/>
  <rect x="820" y="228" width="46" height="174" rx="4" fill="#25364E"/>
  <rect x="874" y="194" width="60" height="208" rx="4" fill="#2D415C"/>
  <rect x="945" y="160" width="82" height="242" rx="5" fill="#314864"/>
  <rect x="1038" y="250" width="52" height="152" rx="4" fill="#24364E"/>
  <rect x="1096" y="208" width="46" height="194" rx="4" fill="#2A3B53"/>
  <rect x="778" y="274" width="30" height="128" rx="4" fill="#26384F"/>
  <rect x="745" y="310" width="24" height="92" rx="4" fill="#203248"/>
  <path d="M730 402H1150" stroke="#F9C279" stroke-opacity="0.35" stroke-width="3"/>
  <path d="M870 320H920" stroke="#FFF3C9" stroke-width="4"/>
  <path d="M960 250H1012" stroke="#FFF3C9" stroke-width="5"/>
  <path d="M1110 286H1140" stroke="#FFF3C9" stroke-width="4"/>
  <path d="M52 378C112 306 180 245 252 186C278 165 318 173 334 202C347 224 341 251 322 269C283 306 237 364 208 429L182 486C169 514 133 524 107 508C81 492 73 460 87 432L110 388L76 414L52 378Z" fill="#15273D" opacity="0.86"/>
  <path d="M146 329C133 290 133 243 143 202" stroke="#17314D" stroke-width="11" stroke-linecap="round"/>
  <path d="M147 253C120 225 88 211 52 210" stroke="#17314D" stroke-width="8" stroke-linecap="round"/>
  <path d="M145 227C115 196 85 179 56 176" stroke="#17314D" stroke-width="7" stroke-linecap="round"/>
  <path d="M145 283C180 255 220 242 258 242" stroke="#17314D" stroke-width="8" stroke-linecap="round"/>
  <path d="M148 256C184 223 214 206 246 200" stroke="#17314D" stroke-width="7" stroke-linecap="round"/>
  <path d="M1160 414C1110 352 1054 300 996 252C973 233 935 240 921 268C910 290 914 319 931 336C966 371 1008 424 1034 482L1057 532C1069 558 1103 567 1126 552C1149 537 1156 507 1144 481L1125 444L1152 466L1160 414Z" fill="#19304A" opacity="0.7"/>
  <path d="M1068 387C1078 350 1078 307 1069 267" stroke="#1B3653" stroke-width="10" stroke-linecap="round"/>
  <path d="M1069 318C1093 292 1121 279 1153 278" stroke="#1B3653" stroke-width="7" stroke-linecap="round"/>
  <path d="M1069 291C1096 261 1121 245 1148 239" stroke="#1B3653" stroke-width="6" stroke-linecap="round"/>
  <path d="M1068 349C1038 323 1005 310 973 309" stroke="#1B3653" stroke-width="7" stroke-linecap="round"/>
  <path d="M1067 322C1036 291 1009 273 980 267" stroke="#1B3653" stroke-width="6" stroke-linecap="round"/>
  <g opacity="0.88">
    <path d="M0 518C151 474 321 477 458 501C598 526 713 557 845 547C959 539 1080 503 1200 513V760H0V518Z" fill="#0A4E84"/>
    <path d="M0 562C147 541 312 542 453 561C605 582 703 606 844 599C968 593 1089 565 1200 570V760H0V562Z" fill="#0D5E96" opacity="0.55"/>
    <path d="M0 624C145 615 303 620 456 638C608 656 739 675 866 671C979 668 1090 652 1200 651V760H0V624Z" fill="#1369A0" opacity="0.42"/>
  </g>
  <defs>
    <linearGradient id="sky" x1="600" y1="0" x2="600" y2="760" gradientUnits="userSpaceOnUse">
      <stop offset="0" stop-color="#0A3D78"/>
      <stop offset="0.29" stop-color="#215C95"/>
      <stop offset="0.5" stop-color="#F69A53"/>
      <stop offset="0.67" stop-color="#EF7A3A"/>
      <stop offset="1" stop-color="#0A3766"/>
    </linearGradient>
    <radialGradient id="sun" cx="0" cy="0" r="1" gradientUnits="userSpaceOnUse" gradientTransform="translate(622 216) rotate(90) scale(120)">
      <stop stop-color="#FFE4A8"/>
      <stop offset="0.55" stop-color="#FFC36A"/>
      <stop offset="1" stop-color="#FF9F4F" stop-opacity="0"/>
    </radialGradient>
    <linearGradient id="water" x1="600" y1="392" x2="600" y2="760" gradientUnits="userSpaceOnUse">
      <stop stop-color="#0A4575"/>
      <stop offset="0.5" stop-color="#0C5C95"/>
      <stop offset="1" stop-color="#0E6DA9"/>
    </linearGradient>
    <linearGradient id="reflection" x1="600" y1="430" x2="600" y2="760" gradientUnits="userSpaceOnUse">
      <stop stop-color="#FFBF77"/>
      <stop offset="1" stop-color="#FFBF77" stop-opacity="0"/>
    </linearGradient>
  </defs>
</svg>
