<svg width="276" height="56" viewBox="0 0 276 56" fill="none" xmlns="http://www.w3.org/2000/svg">
  <g fill="#FFFFFF">
    <path d="M23.051 11.257c2.595 0 5.023.719 7.028 1.973-3.373.551-6.135 2.58-7.946 5.182-1.164-1.425-2.807-2.959-5.161-4.218 1.478-1.821 3.671-2.937 6.079-2.937Z"/>
    <path d="M11.182 17.968c2.875.445 5.863 1.992 8.081 4.638-4.385.18-8.57 2.046-11.578 5.176-.479-1.267-.747-2.64-.747-4.076 0-2.127.58-4.116 1.591-5.738.824-.022 1.712-.022 2.653 0Z"/>
    <path d="M31.804 21.284c1.952 1.986 3.156 4.683 3.156 7.662 0 1.169-.186 2.294-.529 3.347-2.237-2.791-5.398-4.911-9.165-5.843 1.496-2.279 3.806-4.284 6.538-5.166Z"/>
    <path d="M6.604 30.916c3.184-3.986 8.324-6.305 13.68-6.305 5.365 0 10.513 2.327 13.694 6.327a20.013 20.013 0 0 1-13.694 5.412A20.001 20.001 0 0 1 6.604 30.916Z"/>
    <path d="M11.352 38.299h18.132c-.962 4.008-4.574 6.977-8.998 6.977-4.425 0-8.045-2.969-9.134-6.977Z"/>
    <path d="M52.894 17.144h7.291l9.769 12.721V17.144h7.495v22.733h-6.862L60.39 26.688v13.189h-7.496V17.144Z"/>
    <path d="M81.63 31.724c0-4.925 3.91-8.757 9.006-8.757 5.166 0 8.805 3.679 8.805 9.039 0 .521-.038 1.069-.114 1.629H88.77c.406 1.793 1.805 2.813 3.805 2.813 1.57 0 2.766-.597 4.175-1.859l1.765 1.627c-1.678 2.071-4.101 3.316-6.384 3.316-5.395 0-9.501-3.539-9.501-8.808Zm12.024-1.492c-.229-1.799-1.34-2.943-3.009-2.943-1.73 0-2.846 1.123-3.2 2.943h6.209Z"/>
    <path d="M101.229 23.325h5.903l2.797 8.591 2.96-8.657h4.954l2.992 8.708 2.862-8.642h5.799l-5.988 16.69h-5.153l-3.079-8.815-3.145 8.815h-5.187l-5.715-16.69Z"/>
    <path d="M131.221 38.843l2.282-3.478c2.019 1.341 4.182 2.042 5.964 2.042 1.11 0 1.648-.286 1.648-.938 0-.738-1.026-.957-2.961-1.509-3.618-.992-6.48-2.351-6.48-5.957 0-4.02 3.271-6.036 7.462-6.036 2.608 0 5.338.786 7.435 2.091l-2.091 3.635c-1.908-1.054-3.75-1.645-5.396-1.645-.948 0-1.422.295-1.422.83 0 .684 1.012.944 2.913 1.557 3.661 1.115 6.529 2.497 6.529 6.022 0 4.111-3.119 6.089-7.565 6.089-2.914 0-5.98-.859-8.318-2.703Z"/>
    <path d="M149.395 31.515c0-4.843 3.98-8.548 9.507-8.548 5.526 0 9.539 3.679 9.539 8.548 0 4.839-4.013 8.586-9.539 8.586-5.527 0-9.507-3.705-9.507-8.586Zm13.156 0c0-2.088-1.473-3.763-3.649-3.763-2.173 0-3.575 1.639-3.575 3.763 0 2.094 1.456 3.82 3.641 3.82 2.159 0 3.583-1.684 3.583-3.82Z"/>
    <path d="M171.482 17.144h5.787v22.733h-5.787V17.144Z"/>
    <path d="M181.295 33.835V23.325h5.787v8.662c0 1.77.924 2.731 2.393 2.731 1.468 0 2.488-.961 2.488-2.731v-8.662h5.794v16.552h-5.794v-2.252c-1.066 1.348-2.609 2.612-5.135 2.612-3.68 0-5.533-2.446-5.533-6.402Z"/>
    <path d="M202.469 34.722v-6.95h-2.024v-4.447h2.024v-4.329h5.787v4.329h3.98v4.447h-3.98v5.822c0 1.205.562 1.689 1.659 1.689.758 0 1.504-.177 2.244-.537v4.243c-1.125.615-2.57 1.019-4.154 1.019-3.546 0-5.536-1.558-5.536-5.286Z"/>
    <path d="M214.389 17.29h6.003v4.24h-6.003v-4.24Zm.102 6.035h5.787v16.552h-5.787V23.325Z"/>
    <path d="M223.031 31.515c0-4.843 3.979-8.548 9.506-8.548 5.527 0 9.54 3.679 9.54 8.548 0 4.839-4.013 8.586-9.54 8.586-5.527 0-9.506-3.705-9.506-8.586Zm13.156 0c0-2.088-1.473-3.763-3.65-3.763-2.173 0-3.574 1.639-3.574 3.763 0 2.094 1.456 3.82 3.641 3.82 2.159 0 3.583-1.684 3.583-3.82Z"/>
    <path d="M245.191 23.325h5.794v2.345c1.067-1.39 2.626-2.703 5.14-2.703 3.681 0 5.535 2.446 5.535 6.402v10.508h-5.788v-8.657c0-1.771-.929-2.732-2.397-2.732-1.469 0-2.49.961-2.49 2.732v8.657h-5.794V23.325Z"/>
  </g>
</svg>
