<svg width="1900" height="600" viewBox="0 0 1900 600" fill="none" xmlns="http://www.w3.org/2000/svg">
  <defs>
    <linearGradient id="chip" x1="96" y1="90" x2="482" y2="488" gradientUnits="userSpaceOnUse">
      <stop stop-color="#FFF8E8"/>
      <stop offset="0.62" stop-color="#F1DFC0"/>
      <stop offset="1" stop-color="#D9A65C"/>
    </linearGradient>
    <linearGradient id="ink" x1="160" y1="126" x2="1460" y2="470" gradientUnits="userSpaceOnUse">
      <stop stop-color="#153E38"/>
      <stop offset="1" stop-color="#07201A"/>
    </linearGradient>
    <linearGradient id="accent" x1="260" y1="292" x2="520" y2="444" gradientUnits="userSpaceOnUse">
      <stop stop-color="#FF9F67"/>
      <stop offset="1" stop-color="#DF6E3D"/>
    </linearGradient>
    <filter id="shadow" x="52" y="48" width="536" height="536" filterUnits="userSpaceOnUse" color-interpolation-filters="sRGB">
      <feFlood flood-opacity="0" result="BackgroundImageFix"/>
      <feColorMatrix in="SourceAlpha" type="matrix" values="0 0 0 0 0 0 0 0 0 0 0 0 0 0 0 0 0 0 127 0" result="hardAlpha"/>
      <feOffset dy="18"/>
      <feGaussianBlur stdDeviation="18"/>
      <feComposite in2="hardAlpha" operator="out"/>
      <feColorMatrix type="matrix" values="0 0 0 0 0.13 0 0 0 0 0.1 0 0 0 0 0.04 0 0 0 0.18 0"/>
      <feBlend mode="normal" in2="BackgroundImageFix" result="effect1_dropShadow_1_1"/>
      <feBlend mode="normal" in="SourceGraphic" in2="effect1_dropShadow_1_1" result="shape"/>
    </filter>
  </defs>

  <g filter="url(#shadow)">
    <g transform="rotate(-7 320 300)">
      <rect x="110" y="90" width="420" height="420" rx="132" fill="url(#chip)"/>
      <rect x="138" y="118" width="364" height="364" rx="108" stroke="#FFFDF7" stroke-width="8" stroke-opacity="0.88"/>
    </g>
  </g>

  <path d="M252 164V434" stroke="url(#ink)" stroke-width="56" stroke-linecap="round"/>
  <path d="M280 288L418 160" stroke="url(#ink)" stroke-width="56" stroke-linecap="round"/>
  <path d="M280 286L438 408" stroke="url(#ink)" stroke-width="56" stroke-linecap="round"/>
  <circle cx="420" cy="165" r="42" stroke="url(#accent)" stroke-width="24"/>
  <path d="M392 335C392 304.072 417.072 279 448 279C478.928 279 504 304.072 504 335C504 362.923 483.54 386.068 456.75 390.223V435H439.25V390.223C412.46 386.068 392 362.923 392 335Z" fill="url(#accent)"/>
  <circle cx="450" cy="334" r="10" fill="#FFF4DD"/>

  <text x="600" y="328" fill="url(#ink)" font-family="Segoe UI, Arial, sans-serif" font-size="208" font-weight="700" letter-spacing="1.5">kochirent</text>
  <path d="M610 410C786 468 1158 468 1568 390" stroke="url(#accent)" stroke-width="18" stroke-linecap="round"/>
  <path d="M1546 381L1604 391L1568 436" stroke="#DF6E3D" stroke-width="18" stroke-linecap="round" stroke-linejoin="round"/>
</svg>
